<?xml version="1.0" standalone="no"?>
<!DOCTYPE svg PUBLIC "-//W3C//DTD SVG 20010904//EN"
 "http://www.w3.org/TR/2001/REC-SVG-20010904/DTD/svg10.dtd">
<svg version="1.0" xmlns="http://www.w3.org/2000/svg"
 width="414.000000pt" height="420.000000pt" viewBox="0 0 414.000000 420.000000"
 preserveAspectRatio="xMidYMid meet">

<g transform="translate(0.000000,420.000000) scale(0.100000,-0.100000)"
fill="#eeeeee" stroke="none">
<path d="M1937 4183 c-4 -3 -20 -6 -37 -5 l-31 1 6 -47 c25 -201 24 -215 -27
-240 -31 -15 -72 -3 -87 26 -6 10 -16 69 -22 130 l-12 112 -61 -6 c-34 -3 -63
-8 -65 -10 -2 -2 2 -56 9 -121 14 -140 34 -189 92 -229 37 -26 50 -29 118 -29
67 0 82 4 118 28 24 15 51 45 63 69 20 39 21 53 15 148 -9 164 -14 180 -46
180 -15 0 -30 -3 -33 -7z m-99 -330 c-10 -2 -26 -2 -35 0 -10 3 -2 5 17 5 19
0 27 -2 18 -5z m5 -30 c-13 -2 -33 -2 -45 0 -13 2 -3 4 22 4 25 0 35 -2 23 -4z
m-56 -29 c-3 -3 -12 -4 -19 -1 -8 3 -5 6 6 6 11 1 17 -2 13 -5z m78 -4 c-11
-5 -31 -8 -45 -8 -23 0 -22 1 5 8 42 11 65 11 40 0z"/>
<path d="M2116 4158 c-3 -18 -10 -91 -16 -163 -6 -71 -13 -144 -15 -161 l-5
-30 127 -12 c149 -14 184 -8 230 40 65 67 81 164 42 246 -33 67 -75 89 -198
101 -159 17 -159 17 -165 -21z m214 -9 c22 -5 0 -6 -55 -2 -49 3 -99 9 -110
14 -24 10 115 0 165 -12z m65 -19 c3 -6 -1 -7 -9 -4 -18 7 -21 14 -7 14 6 0
13 -4 16 -10z m-37 -19 c17 -9 -87 -2 -143 10 -28 6 -14 7 45 3 47 -3 91 -9
98 -13z m-13 -33 c14 -6 8 -7 -20 -3 -22 2 -57 5 -77 5 -21 0 -38 4 -38 8 0
11 107 3 135 -10z m2 -39 c20 -17 24 -58 9 -94 -15 -34 -16 -35 -70 -35 l-56
0 0 53 c0 28 3 63 7 75 5 22 9 23 52 17 25 -4 51 -11 58 -16z m-19 -164 c4 -4
-11 -5 -33 -2 -22 4 -55 7 -72 7 -18 0 -33 4 -33 8 0 10 128 -2 138 -13z m28
-27 c-14 -10 -96 -9 -161 2 -39 6 -25 7 61 6 62 0 107 -4 100 -8z m-37 -29
c35 0 41 -2 26 -9 -20 -7 -198 5 -220 15 -5 3 26 3 69 0 43 -3 100 -5 125 -6z"/>
<path d="M2620 4118 c0 -2 -22 -86 -49 -188 -28 -101 -49 -185 -48 -185 34
-13 120 -35 124 -31 6 6 104 369 100 372 -9 7 -127 37 -127 32z"/>
<path d="M1283 4059 c-18 -5 -35 -14 -38 -19 -3 -6 -15 -10 -26 -10 -17 0 -19
-7 -19 -72 0 -40 -3 -138 -7 -217 -5 -108 -3 -142 5 -137 7 4 13 17 13 29 1
17 2 18 6 5 2 -10 11 -18 19 -18 11 0 14 22 16 108 l2 107 3 -102 c4 -104 21
-144 25 -55 l1 47 4 -43 c5 -47 26 -54 31 -11 2 20 14 28 64 47 57 20 63 21
79 6 16 -15 23 -15 79 2 34 11 62 23 62 27 0 14 -266 317 -277 316 -5 0 -24
-5 -42 -10z m-16 -176 c-2 -16 -4 -5 -4 22 0 28 2 40 4 28 2 -13 2 -35 0 -50z
m-40 -135 c-2 -35 -3 -7 -3 62 0 69 1 97 3 63 2 -35 2 -91 0 -125z m70 50 c-2
-24 -4 -7 -4 37 0 44 2 63 4 43 2 -21 2 -57 0 -80z m58 46 c19 -29 19 -29 -12
-38 -21 -7 -23 -4 -23 28 0 43 11 46 35 10z"/>
<path d="M2820 4052 c0 -4 52 -28 117 -52 64 -25 120 -46 125 -48 4 -2 8 2 8
10 0 8 -45 31 -110 56 -108 41 -140 49 -140 34z"/>
<path d="M2810 4022 c0 -11 239 -106 247 -98 12 11 -10 23 -118 65 -107 42
-129 47 -129 33z"/>
<path d="M2800 3991 c0 -5 13 -14 29 -21 l29 -11 -54 -135 c-30 -73 -54 -138
-54 -142 0 -5 19 -15 43 -21 23 -7 48 -18 55 -23 7 -6 15 -9 18 -6 2 3 29 66
59 139 29 74 58 133 62 132 5 -1 21 -5 36 -8 16 -4 27 -3 27 3 0 9 -218 102
-240 102 -6 0 -10 -4 -10 -9z"/>
<path d="M666 3593 c-154 -133 -330 -368 -440 -590 -95 -191 -154 -373 -193
-598 -24 -139 -24 -490 0 -630 40 -232 107 -430 214 -637 107 -205 156 -256
204 -212 30 27 23 60 -30 148 -185 306 -273 595 -288 946 -22 531 183 1055
561 1433 52 51 97 103 100 115 5 16 0 28 -18 47 -14 14 -32 25 -40 25 -8 0
-39 -21 -70 -47z"/>
<path d="M3364 3615 c-18 -19 -23 -31 -18 -47 3 -12 48 -64 100 -115 520 -520
696 -1286 457 -1993 -32 -97 -119 -279 -183 -385 -54 -89 -61 -122 -31 -149
48 -44 98 8 203 212 86 166 133 287 174 451 86 341 83 690 -7 1031 -69 258
-193 511 -358 725 -103 135 -265 295 -297 295 -8 0 -26 -11 -40 -25z"/>
<path d="M2027 3499 c-90 -14 -145 -50 -275 -182 -128 -130 -139 -150 -102
-187 37 -37 57 -26 184 99 66 65 136 126 155 136 69 35 177 18 239 -39 68 -61
86 -178 39 -257 -14 -24 -331 -349 -707 -724 -408 -406 -690 -696 -703 -720
-29 -55 -29 -155 0 -210 29 -55 69 -94 123 -119 45 -21 48 -21 1140 -21 1092
0 1095 0 1140 21 93 44 144 123 144 224 0 67 -15 110 -58 160 -12 14 -237 236
-501 494 -264 258 -518 506 -564 552 l-85 83 81 85 c92 94 116 136 132 219 26
141 -48 290 -177 356 -33 17 -58 23 -137 35 -11 2 -42 0 -68 -5z m654 -1331
c310 -304 572 -563 582 -575 44 -54 26 -141 -36 -178 -31 -19 -60 -20 -1085
-23 -735 -2 -1066 1 -1094 9 -70 18 -108 80 -93 150 5 23 144 167 578 599 315
313 574 570 578 570 3 0 259 -249 570 -552z"/>
<path d="M2008 2424 c-85 -20 -155 -59 -224 -126 -204 -195 -204 -511 0 -706
71 -68 139 -106 228 -127 172 -40 343 11 466 139 68 71 106 139 127 228 39
167 -6 328 -127 454 -123 129 -299 180 -470 138z m102 -165 l0 -112 -86 6
c-47 2 -88 7 -91 10 -3 3 6 30 20 61 32 70 101 146 133 146 24 0 24 -1 24
-111z m129 66 c44 -48 99 -150 88 -162 -4 -4 -48 -9 -97 -11 l-90 -4 0 111 0
111 29 0 c21 0 39 -12 70 -45z m-283 -33 c-19 -28 -39 -67 -46 -87 -6 -19 -13
-35 -14 -35 -21 0 -96 36 -96 46 0 25 172 145 188 130 1 -2 -13 -26 -32 -54z
m374 27 c58 -35 120 -89 120 -105 0 -13 -55 -44 -77 -44 -4 0 -16 20 -27 45
-10 25 -29 61 -42 81 -36 52 -31 57 26 23z m200 -246 c11 -36 20 -76 20 -89 0
-22 -4 -24 -55 -24 -42 0 -55 -3 -55 -15 0 -12 13 -15 55 -15 51 0 55 -2 55
-24 0 -36 -38 -151 -58 -175 l-17 -21 -50 19 c-27 11 -49 23 -49 28 1 4 4 20
8 36 5 22 3 27 -13 27 -13 0 -21 -9 -25 -33 l-6 -32 -98 10 c-89 9 -97 12
-100 33 -4 28 -32 29 -32 2 0 -25 -5 -27 -107 -34 l-81 -6 -7 30 c-5 21 -13
30 -26 30 -10 0 -19 -1 -19 -3 0 -1 4 -16 9 -34 9 -31 9 -31 -47 -52 l-57 -21
-17 21 c-20 24 -58 139 -58 175 0 23 3 24 60 24 47 0 60 3 60 15 0 12 -13 15
-60 15 -57 0 -60 1 -60 24 0 32 36 146 53 170 13 18 15 18 71 0 l58 -18 -5
-38 c-4 -32 -2 -38 13 -38 12 0 20 11 24 36 5 24 12 34 20 31 8 -3 50 -9 95
-12 77 -7 81 -9 81 -31 0 -15 6 -24 15 -24 9 0 15 9 15 23 0 23 5 24 98 34
104 11 112 9 112 -34 0 -16 6 -23 20 -23 18 0 20 5 14 38 -6 37 -5 38 43 58
48 21 48 21 65 2 10 -11 27 -49 38 -85z m-422 -446 l3 -107 -30 0 c-23 0 -38
10 -65 43 -35 43 -89 147 -81 156 6 5 132 19 155 17 12 -1 16 -22 18 -109z
m215 93 c13 -12 -43 -119 -84 -162 -27 -28 -44 -38 -67 -38 l-32 0 0 103 c0
57 3 107 7 110 8 9 165 -3 176 -13z m-389 -86 c20 -43 34 -79 32 -81 -13 -14
-170 101 -163 120 3 10 59 35 83 36 7 1 28 -33 48 -75z m486 61 c17 -9 30 -20
30 -25 0 -11 -92 -85 -132 -106 -15 -8 -28 -13 -28 -10 0 20 75 156 87 156 8
0 27 -7 43 -15z"/>
<path d="M1850 2000 c0 -6 7 -40 16 -75 20 -78 39 -84 55 -20 6 25 15 45 19
45 5 0 11 -18 15 -40 12 -72 46 -60 59 22 11 67 19 66 36 -2 20 -79 38 -84 59
-16 l15 48 16 -48 c22 -70 41 -64 59 15 15 70 21 68 41 -17 15 -66 40 -68 54
-4 5 23 12 42 16 42 4 0 11 -19 16 -42 16 -78 48 -47 68 66 10 55 -16 43 -30
-15 -7 -24 -14 -37 -16 -29 -3 8 -9 29 -14 45 -5 17 -16 30 -23 30 -8 0 -18
-13 -23 -30 -18 -59 -20 -60 -32 -15 -9 38 -15 45 -38 47 -24 2 -29 -3 -41
-45 l-14 -47 -9 45 c-14 64 -39 66 -57 3 -15 -48 -15 -48 -22 -18 -15 63 -15
64 -43 62 -23 -2 -29 -9 -38 -47 -12 -45 -14 -44 -32 15 -13 43 -35 37 -51
-15 l-14 -45 -11 44 c-10 40 -36 70 -36 41z"/>
<path d="M605 965 c-51 -18 -110 -81 -124 -131 -16 -59 -13 -97 12 -141 22
-40 185 -196 199 -191 4 2 65 68 137 147 l129 143 -92 84 c-114 105 -166 123
-261 89z m110 -15 c15 -6 6 -9 -33 -9 -29 -1 -63 -6 -74 -12 -14 -8 -18 -8
-14 0 7 11 59 29 86 29 8 1 24 -3 35 -8z m4 -34 c-2 -2 -26 -6 -53 -9 -30 -3
-43 -1 -35 4 13 8 97 13 88 5z m-20 -30 c-2 -2 -17 -6 -34 -10 -22 -5 -26 -4
-15 4 14 9 59 15 49 6z m54 -84 c18 -20 18 -21 -23 -66 -24 -25 -48 -46 -55
-46 -7 0 -27 16 -44 36 -34 38 -34 61 -2 98 36 42 73 35 124 -22z"/>
<path d="M3498 941 c-21 -20 -38 -41 -38 -46 0 -6 43 -57 95 -115 l94 -104
-19 -21 c-26 -28 -25 -31 10 -67 30 -29 30 -29 54 -11 44 35 166 151 166 158
0 3 -14 20 -30 37 -29 29 -31 29 -55 14 -13 -9 -26 -16 -28 -16 -1 0 -45 47
-97 105 -52 58 -99 105 -105 104 -5 0 -27 -17 -47 -38z"/>
<path d="M3360 810 c0 -5 -7 -10 -15 -10 -8 0 -15 -4 -15 -10 0 -5 -7 -10 -15
-10 -8 0 -15 -4 -15 -10 0 -5 -7 -10 -15 -10 -22 0 -19 -14 20 -74 19 -30 35
-57 35 -60 0 -2 -26 -21 -57 -40 l-57 -36 -41 65 -42 65 -25 -23 c-13 -13 -30
-21 -36 -19 -7 2 -12 -1 -12 -7 0 -6 -7 -11 -16 -11 -8 0 -14 -6 -12 -13 2 -7
48 -85 102 -173 95 -154 100 -160 123 -150 12 6 23 16 23 23 0 7 7 10 15 7 8
-4 15 -1 15 5 0 6 7 11 15 11 23 0 18 16 -20 76 -19 30 -35 56 -35 58 0 3 26
21 57 40 l57 36 38 -60 c36 -56 58 -75 58 -49 0 5 5 7 10 4 6 -3 13 0 16 9 3
8 12 12 20 9 8 -3 14 0 14 6 0 6 7 11 15 11 8 0 15 4 15 10 0 14 -204 340
-212 340 -5 0 -8 -4 -8 -10z"/>
<path d="M980 762 c0 -4 25 -22 55 -40 30 -18 55 -35 55 -38 0 -6 -67 33 -84
48 -12 10 -46 11 -46 1 0 -5 22 -21 50 -36 27 -15 52 -32 56 -38 3 -5 -17 4
-45 21 -28 17 -59 30 -68 28 -13 -2 -1 -14 39 -38 32 -19 58 -38 58 -42 0 -4
-34 -63 -75 -130 -74 -122 -74 -123 -54 -139 30 -22 88 -53 93 -48 13 15 196
319 196 327 0 5 -17 17 -37 28 -21 10 -40 22 -43 25 -3 4 -32 23 -65 43 -58
35 -85 44 -85 28z"/>
<path d="M1270 573 c0 -73 -12 -103 -46 -119 -72 -34 -97 -136 -51 -205 19
-29 43 -42 152 -86 71 -29 133 -49 137 -45 8 8 138 342 138 354 0 4 -12 11
-27 14 -16 4 -38 14 -50 22 -32 20 -47 11 -63 -37 -13 -40 -23 -47 -54 -35
-12 5 -16 20 -16 63 l0 56 -49 23 c-63 28 -71 28 -71 -5z m98 -145 c34 -13 62
-26 62 -30 0 -4 -21 2 -46 12 -52 23 -133 26 -153 8 -11 -11 -12 -10 -6 0 8
15 41 30 65 31 8 1 43 -9 78 -21z m47 -60 c6 -5 -15 0 -45 12 -37 15 -68 20
-95 17 l-40 -5 30 13 c26 11 37 10 85 -7 30 -11 60 -25 65 -30z m-60 -9 c31
-12 55 -23 53 -25 -2 -2 -28 6 -58 17 -30 11 -62 18 -72 16 -10 -3 -16 -1 -12
4 8 14 28 11 89 -12z m38 -65 c-7 -18 -18 -18 -70 2 -39 15 -52 31 -38 46 3 3
30 -4 60 -14 37 -14 52 -25 48 -34z m-41 -31 c32 -10 58 -22 58 -26 0 -10 -31
-1 -95 29 -27 13 -43 22 -35 20 8 -3 41 -13 72 -23z m68 -71 c-9 -3 -161 56
-174 68 -5 5 34 -8 87 -28 52 -20 92 -38 87 -40z m-134 21 c22 -9 68 -27 104
-39 36 -13 57 -24 48 -24 -18 0 -198 69 -198 76 0 6 5 5 46 -13z"/>
<path d="M2848 542 c-69 -26 -129 -50 -133 -54 -8 -8 15 -88 26 -88 4 0 43 13
85 30 43 16 79 29 80 27 1 -1 5 -14 9 -28 6 -23 2 -27 -34 -38 -24 -7 -41 -18
-41 -26 0 -8 5 -15 10 -15 5 0 10 -3 9 -7 -1 -5 2 -18 6 -31 6 -20 12 -22 34
-16 49 13 66 10 69 -12 3 -18 -7 -25 -60 -44 -88 -32 -100 -39 -91 -53 4 -7 8
-14 8 -17 3 -24 19 -50 31 -50 12 0 99 32 219 81 17 7 35 13 40 13 6 1 9 9 9
19 -3 34 -129 357 -139 357 -5 -1 -67 -22 -137 -48z"/>
<path d="M1724 431 c-121 -55 -158 -221 -72 -325 43 -53 95 -76 169 -76 95 0
162 42 200 125 46 100 1 223 -102 276 -50 25 -140 25 -195 0z m135 -5 c-2 -2
-29 -6 -59 -9 -34 -3 -47 -2 -35 3 19 8 103 14 94 6z m23 -44 c4 -4 -21 -5
-55 -3 -45 2 -57 6 -42 12 21 9 85 3 97 -9z m-23 -26 c-2 -2 -26 -6 -53 -9
-30 -3 -43 -1 -35 4 13 8 97 13 88 5z m24 -57 c28 -34 31 -65 10 -101 -36 -62
-115 -60 -146 3 -19 40 -11 74 26 105 36 30 81 27 110 -7z m-37 -178 c-18 -7
-66 -3 -66 5 0 2 19 4 43 3 30 0 36 -3 23 -8z m8 -22 c51 13 59 7 11 -9 -40
-13 -92 -7 -121 15 -16 12 -12 11 26 -1 34 -12 53 -13 84 -5z m26 -39 c-8 -5
-35 -9 -60 -8 l-45 1 50 7 c28 4 55 7 60 8 6 1 3 -3 -5 -8z"/>
<path d="M2477 434 c-4 -4 -27 -6 -51 -6 -45 2 -45 2 -52 -35 -3 -21 -9 -51
-13 -68 -7 -29 -8 -28 -31 32 l-25 62 -65 -6 c-36 -3 -66 -6 -67 -7 -3 -3 -63
-363 -63 -381 0 -15 8 -16 58 -11 31 3 60 5 63 6 4 0 10 17 13 37 18 105 16
103 43 35 25 -61 26 -62 63 -62 21 0 51 3 68 6 29 6 31 10 38 60 3 30 10 56
14 59 4 2 15 -21 26 -51 l19 -56 62 4 c34 2 65 6 68 10 3 3 -25 88 -62 189
-64 173 -83 206 -106 183z"/>
</g>
</svg>
